<?xml version="1.0" encoding="UTF-8" standalone="no"?>
<svg
   version="1.1"
   width="6.5805306mm"
   height="10.296875mm"
   viewBox="-3725000 -5225000 6580530.8 10296875"
   id="svg1533"
   sodipodi:docname="SOIC-16_3.9x9.9mm_P1.27mm.svg"
   xml:space="preserve"
   inkscape:version="1.2.1 (9c6d41e410, 2022-07-14)"
   xmlns:inkscape="http://www.inkscape.org/namespaces/inkscape"
   xmlns:sodipodi="http://sodipodi.sourceforge.net/DTD/sodipodi-0.dtd"
   xmlns="http://www.w3.org/2000/svg"
   xmlns:svg="http://www.w3.org/2000/svg"
   xmlns:rdf="http://www.w3.org/1999/02/22-rdf-syntax-ns#"
   xmlns:cc="http://creativecommons.org/ns#"
   xmlns:dc="http://purl.org/dc/elements/1.1/"
   xmlns:serif="http://www.serif.com/"><defs
     id="defs1537" /><sodipodi:namedview
     id="namedview1535"
     pagecolor="#ffffff"
     bordercolor="#999999"
     borderopacity="1"
     inkscape:showpageshadow="0"
     inkscape:pageopacity="0"
     inkscape:pagecheckerboard="0"
     inkscape:deskcolor="#d1d1d1"
     inkscape:document-units="mm"
     showgrid="false"
     inkscape:zoom="26.002592"
     inkscape:cx="-5.3840786"
     inkscape:cy="27.554945"
     inkscape:window-width="2560"
     inkscape:window-height="1361"
     inkscape:window-x="-9"
     inkscape:window-y="-9"
     inkscape:window-maximized="1"
     inkscape:current-layer="g7405" /><title
     id="title1341">Picture generated by PcbDraw </title><desc
     id="desc1343">Picture generated by PcbDraw</desc><g
     id="g929"
     transform="matrix(0,-1000331,980435.15,0,-3745893.4,-746633.69)"
     style="display:inline"><g
       style="clip-rule:evenodd;fill-rule:evenodd;stroke-linejoin:round"
       id="g7405"
       transform="matrix(0,0.35969932,-0.35254515,0,4.551769,-0.4234002)"><g
         transform="matrix(0,-1.47143,0.557143,0,4.0017,32.1292)"
         id="g7303">
        
    </g><g
         id="case"
         style="clip-rule:evenodd;display:inline;fill-rule:evenodd;stroke-linejoin:round"
         transform="matrix(0,-1.47143,0.557143,0,4.0017003,32.1292)">
            <rect
   id="rect5"
   x="1.848"
   y="1.848"
   width="19.843"
   height="19.843"
   style="fill:#141414;fill-opacity:1" />
        </g><g
         id="pins">
        <g
   id="rect832-3-7-0"
   transform="matrix(0,-1.00033,0.980435,0,1.25149,12.8717)">
            <rect
   x="10.219"
   y="0.169"
   width="0.87599999"
   height="3.487"
   style="fill:#e6e6e6;stroke:#cccccc;stroke-width:0.34px"
   id="rect7305" />
        </g>
        <g
   id="rect832-3-71"
   serif:id="rect832-3-7"
   transform="matrix(0,-1.00033,0.980435,0,1.25149,16.4717)">
            <rect
   x="10.219"
   y="0.169"
   width="0.87599999"
   height="3.487"
   style="fill:#e6e6e6;stroke:#cccccc;stroke-width:0.34px"
   id="rect7308" />
        </g>
        <g
   id="rect832-3-72"
   serif:id="rect832-3-7"
   transform="matrix(0,-1.00033,0.980435,0,16.1448,12.8717)">
            <rect
   x="10.219"
   y="0.169"
   width="0.87599999"
   height="3.487"
   style="fill:#e6e6e6;stroke:#cccccc;stroke-width:0.34px"
   id="rect7311" />
        </g>
        <g
   id="rect832-3-73"
   serif:id="rect832-3-7"
   transform="matrix(0,-1.00033,0.980435,0,16.1448,16.4717)">
            <rect
   x="10.219"
   y="0.169"
   width="0.87599999"
   height="3.487"
   style="fill:#e6e6e6;stroke:#cccccc;stroke-width:0.34px"
   id="rect7314" />
        </g>
        <g
   id="rect832-3-74"
   serif:id="rect832-3-7"
   transform="matrix(0,-1.00033,0.980435,0,1.25149,20.0717)">
            <rect
   x="10.219"
   y="0.169"
   width="0.87599999"
   height="3.487"
   style="fill:#e6e6e6;stroke:#cccccc;stroke-width:0.34px"
   id="rect7317" />
        </g>
        <g
   id="rect832-3-75"
   serif:id="rect832-3-7"
   transform="matrix(0,-1.00033,0.980435,0,1.25149,23.6717)">
            <rect
   x="10.219"
   y="0.169"
   width="0.87599999"
   height="3.487"
   style="fill:#e6e6e6;stroke:#cccccc;stroke-width:0.34px"
   id="rect7320" />
        </g>
        <g
   id="rect832-3-76"
   serif:id="rect832-3-7"
   transform="matrix(0,-1.00033,0.980435,0,16.1448,20.0717)">
            <rect
   x="10.219"
   y="0.169"
   width="0.87599999"
   height="3.487"
   style="fill:#e6e6e6;stroke:#cccccc;stroke-width:0.34px"
   id="rect7323" />
        </g>
        <g
   id="rect832-3-77"
   serif:id="rect832-3-7"
   transform="matrix(0,-1.00033,0.980435,0,16.1448,23.6717)">
            <rect
   x="10.219"
   y="0.169"
   width="0.87599999"
   height="3.487"
   style="fill:#e6e6e6;stroke:#cccccc;stroke-width:0.34px"
   id="rect7326" />
        </g>
        <g
   id="rect832-3-78"
   serif:id="rect832-3-7"
   transform="matrix(0,-1.00033,0.980435,0,1.23732,27.2717)">
            <rect
   x="10.219"
   y="0.169"
   width="0.87599999"
   height="3.487"
   style="fill:#e6e6e6;stroke:#cccccc;stroke-width:0.34px"
   id="rect7329" />
        </g>
        <g
   id="rect832-3-79"
   serif:id="rect832-3-7"
   transform="matrix(0,-1.00033,0.980435,0,1.23732,30.8717)">
            <rect
   x="10.219"
   y="0.169"
   width="0.87599999"
   height="3.487"
   style="fill:#e6e6e6;stroke:#cccccc;stroke-width:0.34px"
   id="rect7332" />
        </g>
        <g
   id="rect832-3-710"
   serif:id="rect832-3-7"
   transform="matrix(0,-1.00033,0.980435,0,16.1306,27.2717)">
            <rect
   x="10.219"
   y="0.169"
   width="0.87599999"
   height="3.487"
   style="fill:#e6e6e6;stroke:#cccccc;stroke-width:0.34px"
   id="rect7335" />
        </g>
        <g
   id="rect832-3-711"
   serif:id="rect832-3-7"
   transform="matrix(0,-1.00033,0.980435,0,16.1306,30.8717)">
            <rect
   x="10.219"
   y="0.169"
   width="0.87599999"
   height="3.487"
   style="fill:#e6e6e6;stroke:#cccccc;stroke-width:0.34px"
   id="rect7338" />
        </g>
        <g
   id="rect832-3-712"
   serif:id="rect832-3-7"
   transform="matrix(0,-1.00033,0.980435,0,1.23732,34.4717)">
            <rect
   x="10.219"
   y="0.169"
   width="0.87599999"
   height="3.487"
   style="fill:#e6e6e6;stroke:#cccccc;stroke-width:0.34px"
   id="rect7341" />
        </g>
        <g
   id="rect832-3-713"
   serif:id="rect832-3-7"
   transform="matrix(0,-1.00033,0.980435,0,1.23732,38.0717)">
            <rect
   x="10.219"
   y="0.169"
   width="0.87599999"
   height="3.487"
   style="fill:#e6e6e6;stroke:#cccccc;stroke-width:0.34px"
   id="rect7344" />
        </g>
        <g
   id="rect832-3-714"
   serif:id="rect832-3-7"
   transform="matrix(0,-1.00033,0.980435,0,16.1306,34.4717)">
            <rect
   x="10.219"
   y="0.169"
   width="0.87599999"
   height="3.487"
   style="fill:#e6e6e6;stroke:#cccccc;stroke-width:0.34px"
   id="rect7347" />
        </g>
        <g
   id="rect832-3-715"
   serif:id="rect832-3-7"
   transform="matrix(0,-1.00033,0.980435,0,16.1306,38.0717)">
            <rect
   x="10.219"
   y="0.169"
   width="0.87599999"
   height="3.487"
   style="fill:#e6e6e6;stroke:#cccccc;stroke-width:0.34px"
   id="rect7350" />
        </g>
    </g><g
         transform="matrix(0,-0.747143,0.747143,0,3.75915,4.5097831)"
         id="g7357">
        <g
   id="alignment">
            <circle
   id="path856"
   cx="3.757"
   cy="3.757"
   r="0.82099998"
   style="fill:#e6e6e6;stroke:#cccccc;stroke-width:0.03px" />
        </g>
    </g></g></g><rect
     id="origin"
     fill="#ff0000"
     width="1000000"
     height="1000000"
     x="-434500"
     y="-76499.875" /><metadata
     id="metadata6210"><rdf:RDF><cc:Work
         rdf:about=""><dc:title>Picture generated by PcbDraw </dc:title></cc:Work></rdf:RDF></metadata></svg>
