<?xml version="1.0" encoding="UTF-8" standalone="no"?><!DOCTYPE svg PUBLIC "-//W3C//DTD SVG 1.1//EN" "http://www.w3.org/Graphics/SVG/1.1/DTD/svg11.dtd"><svg width="26px" height="23px" version="1.1" xmlns="http://www.w3.org/2000/svg" xmlns:xlink="http://www.w3.org/1999/xlink" xml:space="preserve" xmlns:serif="http://www.serif.com/" style="fill-rule:evenodd;clip-rule:evenodd;stroke-linejoin:round;"><g transform="matrix(1,0,0,1,-3.09969,-2.5517)"><g id="pins"><g transform="matrix(0.647179,-6.12525e-17,3.88402e-17,0.980435,-0.601534,2.52722)"><rect x="10.219" y="0.169" width="0.876" height="3.487" style="fill:rgb(230,230,230);stroke:rgb(204,204,204);stroke-width:0.34px;"/></g><g transform="matrix(0.647179,-6.12525e-17,3.88402e-17,0.980435,0.206923,2.52722)"><rect x="10.219" y="0.169" width="0.876" height="3.487" style="fill:rgb(230,230,230);stroke:rgb(204,204,204);stroke-width:0.34px;"/></g><g transform="matrix(0.647179,-6.12525e-17,3.88402e-17,0.980435,1.66618,2.52722)"><rect x="10.219" y="0.169" width="0.876" height="3.487" style="fill:rgb(230,230,230);stroke:rgb(204,204,204);stroke-width:0.34px;"/></g><g transform="matrix(0.647179,-6.12525e-17,3.88402e-17,0.980435,2.47464,2.52722)"><rect x="10.219" y="0.169" width="0.876" height="3.487" style="fill:rgb(230,230,230);stroke:rgb(204,204,204);stroke-width:0.34px;"/></g><g transform="matrix(0.647179,-6.12525e-17,3.88402e-17,0.980435,15.2725,2.52722)"><rect x="10.219" y="0.169" width="0.876" height="3.487" style="fill:rgb(230,230,230);stroke:rgb(204,204,204);stroke-width:0.34px;"/></g><g transform="matrix(0.647179,-6.12525e-17,3.88402e-17,0.980435,16.0809,2.52722)"><rect x="10.219" y="0.169" width="0.876" height="3.487" style="fill:rgb(230,230,230);stroke:rgb(204,204,204);stroke-width:0.34px;"/></g><g transform="matrix(0.647179,-6.12525e-17,3.88402e-17,0.980435,17.5402,2.52722)"><rect x="10.219" y="0.169" width="0.876" height="3.487" style="fill:rgb(230,230,230);stroke:rgb(204,204,204);stroke-width:0.34px;"/></g><g transform="matrix(0.647179,-6.12525e-17,3.88402e-17,0.980435,18.3487,2.52722)"><rect x="10.219" y="0.169" width="0.876" height="3.487" style="fill:rgb(230,230,230);stroke:rgb(204,204,204);stroke-width:0.34px;"/></g><g transform="matrix(0.647179,-6.12525e-17,3.88402e-17,0.980435,3.91293,2.52722)"><rect x="10.219" y="0.169" width="0.876" height="3.487" style="fill:rgb(230,230,230);stroke:rgb(204,204,204);stroke-width:0.34px;"/></g><g transform="matrix(0.647179,-6.12525e-17,3.88402e-17,0.980435,5.33025,2.52722)"><rect x="10.219" y="0.169" width="0.876" height="3.487" style="fill:rgb(230,230,230);stroke:rgb(204,204,204);stroke-width:0.34px;"/></g><g transform="matrix(0.647179,-6.12525e-17,3.88402e-17,0.980435,6.74758,2.52722)"><rect x="10.219" y="0.169" width="0.876" height="3.487" style="fill:rgb(230,230,230);stroke:rgb(204,204,204);stroke-width:0.34px;"/></g><g transform="matrix(0.647179,-6.12525e-17,3.88402e-17,0.980435,8.1649,2.52722)"><rect x="10.219" y="0.169" width="0.876" height="3.487" style="fill:rgb(230,230,230);stroke:rgb(204,204,204);stroke-width:0.34px;"/></g><g transform="matrix(0.647179,-5.78971e-17,3.88402e-17,0.926727,9.58222,2.5363)"><rect x="10.219" y="0.169" width="0.876" height="3.487" style="fill:rgb(230,230,230);stroke:rgb(204,204,204);stroke-width:0.34px;"/></g><g transform="matrix(0.647179,-5.78971e-17,3.88402e-17,0.926727,10.9995,2.5363)"><rect x="10.219" y="0.169" width="0.876" height="3.487" style="fill:rgb(230,230,230);stroke:rgb(204,204,204);stroke-width:0.34px;"/></g><g transform="matrix(0.647179,-5.78971e-17,3.88402e-17,0.926727,12.4169,2.5363)"><rect x="10.219" y="0.169" width="0.876" height="3.487" style="fill:rgb(230,230,230);stroke:rgb(204,204,204);stroke-width:0.34px;"/></g><g transform="matrix(0.647179,-5.78971e-17,3.88402e-17,0.926727,13.8342,2.5363)"><rect x="10.219" y="0.169" width="0.876" height="3.487" style="fill:rgb(230,230,230);stroke:rgb(204,204,204);stroke-width:0.34px;"/></g></g><g id="case"><g transform="matrix(3.88602,0,0,4.05432,-36.1343,-36.2569)"><rect x="10.096" y="9.952" width="6.521" height="5.139" style="fill:rgb(185,190,194);"/></g><g transform="matrix(1.12756,0,0,1.82445,-7.03408,-7.83394)"><rect x="8.987" y="6.537" width="3.268" height="11.42" style="fill:url(#_Linear1);"/></g><g transform="matrix(-1.12756,-1.38087e-16,2.2343e-16,-1.82445,38.5752,36.8525)"><rect x="8.987" y="6.537" width="3.268" height="11.42" style="fill:url(#_Linear2);"/></g><g transform="matrix(0.688422,0,0,1.38298,5.37177,-4.19485)"><rect x="11.605" y="9.387" width="7" height="0.922" style="fill:rgb(84,85,86);"/></g><g transform="matrix(1.88651,0,0,1.43517,-11.272,-2.77823)"><rect x="10.477" y="5.59" width="1.878" height="1.778" style="fill:rgb(84,85,86);"/></g><g transform="matrix(1.88651,0,0,1.43517,-0.259661,-2.77823)"><rect x="10.477" y="5.59" width="1.878" height="1.778" style="fill:rgb(84,85,86);"/></g><g transform="matrix(1.1973,0,0,1.18135,10.0454,-1.26729)"><rect x="8.493" y="6.112" width="2.368" height="0.96" style="fill:rgb(185,190,194);"/></g><g transform="matrix(1.1973,0,0,1.18135,-1.67558,-1.26729)"><rect x="8.493" y="6.112" width="2.368" height="0.96" style="fill:rgb(185,190,194);"/></g></g><rect id="origin" x="15.771" y="17.575" width="2.835" height="2.835" style="fill:rgb(255,0,0);"/></g><defs><linearGradient id="_Linear1" x1="0" y1="0" x2="1" y2="0" gradientUnits="userSpaceOnUse" gradientTransform="matrix(3.26814,0,0,11.4197,8.9873,12.2466)"><stop offset="0" style="stop-color:rgb(84,85,86);stop-opacity:1"/><stop offset="1" style="stop-color:rgb(185,190,194);stop-opacity:1"/></linearGradient><linearGradient id="_Linear2" x1="0" y1="0" x2="1" y2="0" gradientUnits="userSpaceOnUse" gradientTransform="matrix(3.26814,0,0,11.4197,8.9873,12.2466)"><stop offset="0" style="stop-color:rgb(84,85,86);stop-opacity:1"/><stop offset="1" style="stop-color:rgb(185,190,194);stop-opacity:1"/></linearGradient></defs></svg>