<?xml version="1.0" encoding="UTF-8" standalone="no"?>
<svg
   version="1.1"
   width="8.9399996mm"
   height="7.9023886mm"
   viewBox="-5563500 -6200000 8939999.7 7902388.7"
   id="svg2968"
   sodipodi:docname="HRO_TYPE-C-31-M-12.svg"
   inkscape:version="1.2.1 (9c6d41e410, 2022-07-14)"
   xmlns:inkscape="http://www.inkscape.org/namespaces/inkscape"
   xmlns:sodipodi="http://sodipodi.sourceforge.net/DTD/sodipodi-0.dtd"
   xmlns:xlink="http://www.w3.org/1999/xlink"
   xmlns="http://www.w3.org/2000/svg"
   xmlns:svg="http://www.w3.org/2000/svg"
   xmlns:rdf="http://www.w3.org/1999/02/22-rdf-syntax-ns#"
   xmlns:cc="http://creativecommons.org/ns#"
   xmlns:dc="http://purl.org/dc/elements/1.1/">
  <defs
     id="defs2972">
    <linearGradient
       id="_Linear1"
       x1="0"
       y1="0"
       x2="1"
       y2="0"
       gradientUnits="userSpaceOnUse"
       gradientTransform="matrix(3.26814,0,0,11.4197,8.9873,12.2466)">
      <stop
         offset="0"
         style="stop-color:rgb(84,85,86);stop-opacity:1"
         id="stop3918" />
      <stop
         offset="1"
         style="stop-color:rgb(185,190,194);stop-opacity:1"
         id="stop3920" />
    </linearGradient>
    <linearGradient
       inkscape:collect="always"
       xlink:href="#_Linear1"
       id="linearGradient5386"
       gradientUnits="userSpaceOnUse"
       gradientTransform="matrix(3.26814,0,0,11.4197,8.9873,12.2466)"
       x1="0"
       y1="0"
       x2="1"
       y2="0" />
    <linearGradient
       inkscape:collect="always"
       xlink:href="#_Linear1"
       id="linearGradient5388"
       gradientUnits="userSpaceOnUse"
       gradientTransform="matrix(3.26814,0,0,11.4197,8.9873,12.2466)"
       x1="0"
       y1="0"
       x2="1"
       y2="0" />
  </defs>
  <sodipodi:namedview
     id="namedview2970"
     pagecolor="#ffffff"
     bordercolor="#999999"
     borderopacity="1"
     inkscape:showpageshadow="0"
     inkscape:pageopacity="0"
     inkscape:pagecheckerboard="0"
     inkscape:deskcolor="#d1d1d1"
     inkscape:document-units="mm"
     showgrid="false"
     inkscape:zoom="11.313709"
     inkscape:cx="15.026019"
     inkscape:cy="23.555495"
     inkscape:window-width="2560"
     inkscape:window-height="1361"
     inkscape:window-x="-9"
     inkscape:window-y="-9"
     inkscape:window-maximized="1"
     inkscape:current-layer="svg2968" />
  <title
     id="title2720">Picture generated by PcbDraw </title>
  <desc
     id="desc2722">Picture generated by PcbDraw</desc>
  <g
     transform="matrix(352452.71,0,0,352452.71,-6650432.4,-7089691.8)"
     id="g3916"
     style="clip-rule:evenodd;fill-rule:evenodd;stroke-linejoin:round">
    <g
       id="pins"
       transform="matrix(1.0008777,0,0,1.0008777,-0.01776692,-0.00416986)">
      <g
         transform="matrix(0.647179,0,0,0.980435,-0.601534,2.52722)"
         id="g3819">
        <rect
           x="10.219"
           y="0.169"
           width="0.87599999"
           height="3.487"
           style="fill:#e6e6e6;stroke:#cccccc;stroke-width:0.34px"
           id="rect3817" />
      </g>
      <g
         transform="matrix(0.647179,0,0,0.980435,0.206923,2.52722)"
         id="g3823">
        <rect
           x="10.219"
           y="0.169"
           width="0.87599999"
           height="3.487"
           style="fill:#e6e6e6;stroke:#cccccc;stroke-width:0.34px"
           id="rect3821" />
      </g>
      <g
         transform="matrix(0.647179,0,0,0.980435,1.66618,2.52722)"
         id="g3827">
        <rect
           x="10.219"
           y="0.169"
           width="0.87599999"
           height="3.487"
           style="fill:#e6e6e6;stroke:#cccccc;stroke-width:0.34px"
           id="rect3825" />
      </g>
      <g
         transform="matrix(0.647179,0,0,0.980435,2.47464,2.52722)"
         id="g3831">
        <rect
           x="10.219"
           y="0.169"
           width="0.87599999"
           height="3.487"
           style="fill:#e6e6e6;stroke:#cccccc;stroke-width:0.34px"
           id="rect3829" />
      </g>
      <g
         transform="matrix(0.647179,0,0,0.980435,15.2725,2.52722)"
         id="g3835">
        <rect
           x="10.219"
           y="0.169"
           width="0.87599999"
           height="3.487"
           style="fill:#e6e6e6;stroke:#cccccc;stroke-width:0.34px"
           id="rect3833" />
      </g>
      <g
         transform="matrix(0.647179,0,0,0.980435,16.0809,2.52722)"
         id="g3839">
        <rect
           x="10.219"
           y="0.169"
           width="0.87599999"
           height="3.487"
           style="fill:#e6e6e6;stroke:#cccccc;stroke-width:0.34px"
           id="rect3837" />
      </g>
      <g
         transform="matrix(0.647179,0,0,0.980435,17.5402,2.52722)"
         id="g3843">
        <rect
           x="10.219"
           y="0.169"
           width="0.87599999"
           height="3.487"
           style="fill:#e6e6e6;stroke:#cccccc;stroke-width:0.34px"
           id="rect3841" />
      </g>
      <g
         transform="matrix(0.647179,0,0,0.980435,18.3487,2.52722)"
         id="g3847">
        <rect
           x="10.219"
           y="0.169"
           width="0.87599999"
           height="3.487"
           style="fill:#e6e6e6;stroke:#cccccc;stroke-width:0.34px"
           id="rect3845" />
      </g>
      <g
         transform="matrix(0.647179,0,0,0.980435,3.91293,2.52722)"
         id="g3851">
        <rect
           x="10.219"
           y="0.169"
           width="0.87599999"
           height="3.487"
           style="fill:#e6e6e6;stroke:#cccccc;stroke-width:0.34px"
           id="rect3849" />
      </g>
      <g
         transform="matrix(0.647179,0,0,0.980435,5.33025,2.52722)"
         id="g3855">
        <rect
           x="10.219"
           y="0.169"
           width="0.87599999"
           height="3.487"
           style="fill:#e6e6e6;stroke:#cccccc;stroke-width:0.34px"
           id="rect3853" />
      </g>
      <g
         transform="matrix(0.647179,0,0,0.980435,6.74758,2.52722)"
         id="g3859">
        <rect
           x="10.219"
           y="0.169"
           width="0.87599999"
           height="3.487"
           style="fill:#e6e6e6;stroke:#cccccc;stroke-width:0.34px"
           id="rect3857" />
      </g>
      <g
         transform="matrix(0.647179,0,0,0.980435,8.1649,2.52722)"
         id="g3863">
        <rect
           x="10.219"
           y="0.169"
           width="0.87599999"
           height="3.487"
           style="fill:#e6e6e6;stroke:#cccccc;stroke-width:0.34px"
           id="rect3861" />
      </g>
      <g
         transform="matrix(0.647179,0,0,0.926727,9.58222,2.5363)"
         id="g3867">
        <rect
           x="10.219"
           y="0.169"
           width="0.87599999"
           height="3.487"
           style="fill:#e6e6e6;stroke:#cccccc;stroke-width:0.34px"
           id="rect3865" />
      </g>
      <g
         transform="matrix(0.647179,0,0,0.926727,10.9995,2.5363)"
         id="g3871">
        <rect
           x="10.219"
           y="0.169"
           width="0.87599999"
           height="3.487"
           style="fill:#e6e6e6;stroke:#cccccc;stroke-width:0.34px"
           id="rect3869" />
      </g>
      <g
         transform="matrix(0.647179,0,0,0.926727,12.4169,2.5363)"
         id="g3875">
        <rect
           x="10.219"
           y="0.169"
           width="0.87599999"
           height="3.487"
           style="fill:#e6e6e6;stroke:#cccccc;stroke-width:0.34px"
           id="rect3873" />
      </g>
      <g
         transform="matrix(0.647179,0,0,0.926727,13.8342,2.5363)"
         id="g3879">
        <rect
           x="10.219"
           y="0.169"
           width="0.87599999"
           height="3.487"
           style="fill:#e6e6e6;stroke:#cccccc;stroke-width:0.34px"
           id="rect3877" />
      </g>
    </g>
    <g
       id="case"
       transform="matrix(1.0008777,0,0,1.0008777,-0.01776692,-0.00416986)">
      <g
         transform="matrix(3.88602,0,0,4.05432,-36.1343,-36.2569)"
         id="g3884">
        <rect
           x="10.096"
           y="9.9519997"
           width="6.5209999"
           height="5.1389999"
           style="fill:#b9bec2"
           id="rect3882" />
      </g>
      <g
         transform="matrix(1.12756,0,0,1.82445,-7.03408,-7.83394)"
         id="g3888">
        <rect
           x="8.9870005"
           y="6.5370002"
           width="3.2679999"
           height="11.42"
           style="fill:url(#linearGradient5386)"
           id="rect3886" />
      </g>
      <g
         transform="matrix(-1.12756,0,0,-1.82445,38.5752,36.8525)"
         id="g3892">
        <rect
           x="8.9870005"
           y="6.5370002"
           width="3.2679999"
           height="11.42"
           style="fill:url(#linearGradient5388)"
           id="rect3890" />
      </g>
      <g
         transform="matrix(0.688422,0,0,1.38298,5.37177,-4.19485)"
         id="g3896">
        <rect
           x="11.605"
           y="9.3870001"
           width="7"
           height="0.92199999"
           style="fill:#545556"
           id="rect3894" />
      </g>
      <g
         transform="matrix(1.88651,0,0,1.43517,-11.272,-2.77823)"
         id="g3900">
        <rect
           x="10.477"
           y="5.5900002"
           width="1.878"
           height="1.778"
           style="fill:#545556"
           id="rect3898" />
      </g>
      <g
         transform="matrix(1.88651,0,0,1.43517,-0.259661,-2.77823)"
         id="g3904">
        <rect
           x="10.477"
           y="5.5900002"
           width="1.878"
           height="1.778"
           style="fill:#545556"
           id="rect3902" />
      </g>
      <g
         transform="matrix(1.1973,0,0,1.18135,10.0454,-1.26729)"
         id="g3908">
        <rect
           x="8.493"
           y="6.112"
           width="2.368"
           height="0.95999998"
           style="fill:#b9bec2"
           id="rect3906" />
      </g>
      <g
         transform="matrix(1.1973,0,0,1.18135,-1.67558,-1.26729)"
         id="g3912">
        <rect
           x="8.493"
           y="6.112"
           width="2.368"
           height="0.95999998"
           style="fill:#b9bec2"
           id="rect3910" />
      </g>
    </g>
  </g>
  <rect
     id="origin"
     fill="#ff0000"
     width="1000000"
     height="1000000"
     x="-1095000"
     y="-900000.06" />
  <metadata
     id="metadata5505">
    <rdf:RDF>
      <cc:Work
         rdf:about="">
        <dc:title>Picture generated by PcbDraw </dc:title>
      </cc:Work>
    </rdf:RDF>
  </metadata>
</svg>
